<svg xmlns="http://www.w3.org/2000/svg" width="400" height="300" viewBox="0 0 400 300">
  <defs>
    <linearGradient id="bg5" x1="0%" y1="0%" x2="100%" y2="100%">
      <stop offset="0%" style="stop-color:#f59e0b"/>
      <stop offset="100%" style="stop-color:#ef4444"/>
    </linearGradient>
  </defs>
  <rect width="400" height="300" fill="url(#bg5)"/>
  <rect x="30" y="20" width="150" height="20" rx="3" fill="rgba(255,255,255,0.9)"/>
  <text x="200" y="70" font-family="sans-serif" font-size="16" font-weight="700" fill="white" text-anchor="middle">SALE 50% OFF</text>
  <rect x="30" y="90" width="165" height="120" rx="8" fill="white"/>
  <rect x="205" y="90" width="165" height="120" rx="8" fill="white"/>
  <rect x="45" y="105" width="135" height="70" rx="4" fill="#f3f4f6"/>
  <rect x="220" y="105" width="135" height="70" rx="4" fill="#f3f4f6"/>
  <rect x="45" y="182" width="80" height="12" rx="2" fill="#374151"/>
  <rect x="220" y="182" width="80" height="12" rx="2" fill="#374151"/>
  <text x="155" y="194" font-family="sans-serif" font-size="12" font-weight="700" fill="#ef4444">$49</text>
  <text x="330" y="194" font-family="sans-serif" font-size="12" font-weight="700" fill="#ef4444">$79</text>
  <rect x="100" y="230" width="200" height="50" rx="8" fill="rgba(255,255,255,0.2)"/>
  <rect x="150" y="245" width="100" height="20" rx="4" fill="white"/>
  <rect x="260" y="245" width="30" height="20" rx="4" fill="#22c55e"/>
</svg>
